<svg width="444" height="112" viewBox="0 0 444 112" fill="none" xmlns="http://www.w3.org/2000/svg">
<g filter="url(#filter0_ii_47_87953)">
<path d="M0 28V56L49 28L98 56V28L49 0L0 28Z" fill="#3D0CC6"/>
</g>
<g filter="url(#filter1_ii_47_87953)">
<path d="M24.5 42L0 56L24.5 70L49 56L24.5 42Z" fill="#4CC8FD"/>
</g>
<g filter="url(#filter2_ii_47_87953)">
<path d="M73.5 42L49 56L73.5 70L98 56L73.5 42Z" fill="#4CC8FD"/>
</g>
<g filter="url(#filter3_i_47_87953)">
<path d="M73.5 42V70L98 56V84L73.5 98L49 112V56L73.5 42Z" fill="#2B80FF"/>
<path d="M73.5 42V70L98 56V84L73.5 98L49 112V56L73.5 42Z" fill="url(#paint0_linear_47_87953)"/>
</g>
<g filter="url(#filter4_ii_47_87953)">
<path d="M24.5 42L49 56V112L24.5 98L0 84V56L24.5 70V42Z" fill="#3D0CC6"/>
</g>
<path d="M49 28L24.5 42L49 56L73.5 42L49 28Z" fill="#23AEFC"/>
<path d="M24.5 42L0 28L49 0L98 28L73.5 42L49 28L24.5 42Z" fill="#2B80FF"/>
<g filter="url(#filter5_ii_47_87953)">
<path d="M0 28V56L49 28L98 56V28L49 0L0 28Z" fill="#3D0CC6"/>
</g>
<g filter="url(#filter6_i_47_87953)">
<path d="M24.5 42L0 56L24.5 70L49 56L24.5 42Z" fill="#4CC8FD"/>
</g>
<g filter="url(#filter7_i_47_87953)">
<path d="M73.5 42L49 56L73.5 70L98 56L73.5 42Z" fill="#4CC8FD"/>
</g>
<g filter="url(#filter8_i_47_87953)">
<path d="M49 56V84L24.5 98V70L49 56Z" fill="url(#paint1_linear_47_87953)"/>
</g>
<path d="M73.5 42V70L98 56V84L73.5 98L49 112V56L73.5 42Z" fill="#2B80FF"/>
<path d="M73.5 42V70L98 56V84L73.5 98L49 112V56L73.5 42Z" fill="url(#paint2_linear_47_87953)"/>
<g filter="url(#filter9_ii_47_87953)">
<path d="M24.5 42L49 56V112L24.5 98L0 84V56L24.5 70V42Z" fill="#3D0CC6"/>
</g>
<path d="M49 28L24.5 42L49 56L73.5 42L49 28Z" fill="#23AEFC"/>
<path d="M24.5 42L0 28L49 0L98 28L73.5 42L49 28L24.5 42Z" fill="#2B80FF"/>
<path d="M142.368 83.7801V46.7707H151.107V83.7801H142.368ZM141 33.7756C141 32.1544 141.557 30.7865 142.672 29.6719C143.786 28.5573 145.129 28 146.7 28C148.321 28 149.689 28.5573 150.803 29.6719C151.918 30.7865 152.475 32.1544 152.475 33.7756C152.475 35.3968 151.918 36.7647 150.803 37.8793C149.689 38.9432 148.321 39.4752 146.7 39.4752C145.129 39.4752 143.786 38.9432 142.672 37.8793C141.557 36.7647 141 35.3968 141 33.7756Z" fill="#09102F"/>
<path d="M166.887 71.6209C167.039 73.2928 167.723 74.762 168.939 76.0286C170.206 77.2952 172.03 77.9285 174.411 77.9285C176.235 77.9285 177.603 77.5232 178.515 76.7126C179.477 75.8513 179.959 74.838 179.959 73.6728C179.959 72.6595 179.604 71.7983 178.895 71.089C178.185 70.3797 177.096 69.8731 175.627 69.5691L170.155 68.3532C166.862 67.6439 164.38 66.3266 162.708 64.4014C161.036 62.4256 160.2 60.1457 160.2 57.5619C160.2 55.9407 160.555 54.4208 161.264 53.0022C161.973 51.533 162.936 50.2664 164.152 49.2025C165.368 48.0879 166.786 47.2266 168.407 46.6187C170.079 45.9601 171.878 45.6308 173.803 45.6308C176.387 45.6308 178.54 46.0107 180.263 46.7707C182.036 47.48 183.48 48.3666 184.594 49.4305C185.709 50.4944 186.519 51.6343 187.026 52.8503C187.583 54.0155 187.938 55.0541 188.09 55.966L180.643 58.0939C180.541 57.5873 180.364 57.0046 180.111 56.346C179.857 55.6874 179.452 55.0794 178.895 54.5221C178.388 53.9648 177.704 53.5089 176.843 53.1542C176.032 52.7489 175.019 52.5463 173.803 52.5463C172.232 52.5463 170.941 52.9769 169.927 53.8382C168.965 54.6488 168.483 55.6367 168.483 56.802C168.483 57.8152 168.813 58.6512 169.471 59.3098C170.13 59.9684 171.042 60.4244 172.207 60.6777L177.831 61.8176C181.326 62.5776 183.961 63.9708 185.734 65.9973C187.558 67.9732 188.47 70.329 188.47 73.0648C188.47 74.4834 188.166 75.902 187.558 77.3205C187.001 78.6884 186.139 79.955 184.974 81.1203C183.86 82.2349 182.416 83.1468 180.643 83.8561C178.869 84.5654 176.817 84.92 174.487 84.92C171.802 84.92 169.522 84.54 167.647 83.7801C165.773 83.0201 164.228 82.0829 163.012 80.9683C161.796 79.803 160.884 78.5871 160.276 77.3205C159.668 76.0033 159.313 74.8127 159.212 73.7488L166.887 71.6209Z" fill="#09102F"/>
<path d="M213.252 77.0166C214.62 77.0166 215.912 76.7632 217.128 76.2566C218.394 75.75 219.509 75.0154 220.471 74.0528C221.434 73.0395 222.194 71.7983 222.751 70.329C223.309 68.8598 223.587 67.1626 223.587 65.2374C223.587 63.3122 223.309 61.6403 222.751 60.2217C222.194 58.7525 221.434 57.5366 220.471 56.574C219.509 55.5607 218.394 54.8261 217.128 54.3701C215.912 53.8635 214.62 53.6102 213.252 53.6102C211.884 53.6102 210.567 53.8635 209.3 54.3701C208.084 54.8261 206.995 55.5607 206.032 56.574C205.121 57.5366 204.361 58.7525 203.753 60.2217C203.195 61.6403 202.917 63.3122 202.917 65.2374C202.917 67.1626 203.195 68.8598 203.753 70.329C204.361 71.7983 205.121 73.0395 206.032 74.0528C206.995 75.0154 208.084 75.75 209.3 76.2566C210.567 76.7632 211.884 77.0166 213.252 77.0166ZM213.252 45.6308C216.038 45.6308 218.597 46.1374 220.927 47.1507C223.258 48.1133 225.284 49.4812 227.007 51.2544C228.73 52.9769 230.072 55.0288 231.035 57.4099C231.997 59.7911 232.479 62.4003 232.479 65.2374C232.479 68.0745 231.997 70.709 231.035 73.1408C230.072 75.522 228.73 77.5992 227.007 79.3724C225.284 81.0949 223.258 82.4628 220.927 83.4761C218.597 84.4387 216.038 84.92 213.252 84.92C210.516 84.92 207.958 84.4387 205.576 83.4761C203.246 82.4628 201.219 81.0949 199.497 79.3724C197.825 77.5992 196.508 75.522 195.545 73.1408C194.583 70.709 194.101 68.0745 194.101 65.2374C194.101 62.4003 194.583 59.7911 195.545 57.4099C196.508 55.0288 197.825 52.9769 199.497 51.2544C201.219 49.4812 203.246 48.1133 205.576 47.1507C207.958 46.1374 210.516 45.6308 213.252 45.6308Z" fill="#09102F"/>
<path d="M240.998 83.7801V46.7707H249.433V51.4824C250.497 49.6078 252.068 48.1892 254.145 47.2266C256.222 46.2134 258.299 45.7068 260.376 45.7068C262.808 45.7068 265.012 46.264 266.988 47.3786C268.964 48.4426 270.458 50.0638 271.472 52.2423C272.941 49.8105 274.689 48.1133 276.715 47.1507C278.792 46.1881 281.047 45.7068 283.479 45.7068C285.151 45.7068 286.772 45.9854 288.342 46.5427C289.913 47.1 291.306 47.9613 292.522 49.1265C293.738 50.2411 294.701 51.685 295.41 53.4582C296.17 55.2314 296.55 57.3339 296.55 59.7658V83.7801H288.038V61.2097C288.038 59.0312 287.456 57.2326 286.291 55.814C285.176 54.3448 283.377 53.6102 280.895 53.6102C278.564 53.6102 276.69 54.4208 275.271 56.042C273.903 57.6126 273.219 59.5378 273.219 61.8176V83.7801H264.556V61.2097C264.556 59.0818 263.999 57.2833 262.884 55.814C261.77 54.3448 259.946 53.6102 257.413 53.6102C255.031 53.6102 253.157 54.3955 251.789 55.966C250.421 57.4859 249.737 59.4365 249.737 61.8176V83.7801H240.998Z" fill="#09102F"/>
<path d="M331.663 61.2097C331.612 60.1457 331.384 59.1325 330.979 58.1699C330.624 57.1566 330.067 56.27 329.307 55.5101C328.547 54.7501 327.61 54.1422 326.495 53.6862C325.381 53.2302 324.063 53.0022 322.544 53.0022C321.176 53.0022 319.934 53.2556 318.82 53.7622C317.756 54.2182 316.844 54.8514 316.084 55.6621C315.324 56.422 314.716 57.3086 314.26 58.3219C313.804 59.2845 313.551 60.2471 313.5 61.2097H331.663ZM340.098 73.2168C339.592 74.838 338.857 76.3579 337.894 77.7765C336.932 79.1951 335.741 80.4363 334.323 81.5002C332.904 82.5642 331.283 83.4001 329.459 84.0081C327.635 84.616 325.609 84.92 323.38 84.92C320.846 84.92 318.44 84.4894 316.16 83.6281C313.88 82.7162 311.879 81.4242 310.156 79.7524C308.434 78.0298 307.041 75.9526 305.977 73.5208C304.963 71.0383 304.457 68.2265 304.457 65.0854C304.457 62.1469 304.938 59.4871 305.901 57.106C306.914 54.7248 308.257 52.6983 309.928 51.0264C311.6 49.3038 313.526 47.9866 315.704 47.0747C317.883 46.1121 320.137 45.6308 322.468 45.6308C325.305 45.6308 327.838 46.0867 330.067 46.9987C332.347 47.9106 334.247 49.2025 335.767 50.8744C337.337 52.5463 338.528 54.5728 339.338 56.954C340.149 59.2845 340.554 61.919 340.554 64.8574C340.554 65.5667 340.529 66.2 340.478 66.7573C340.428 67.2639 340.377 67.5679 340.326 67.6692H313.272C313.323 69.0878 313.627 70.3797 314.184 71.5449C314.741 72.7102 315.476 73.7235 316.388 74.5847C317.3 75.446 318.339 76.13 319.504 76.6366C320.72 77.0926 322.012 77.3205 323.38 77.3205C326.065 77.3205 328.116 76.7126 329.535 75.4967C331.004 74.2301 332.043 72.6849 332.651 70.861L340.098 73.2168Z" fill="#09102F"/>
<path d="M370.637 55.5101C369.624 55.3581 368.661 55.2821 367.749 55.2821C364.304 55.2821 361.771 56.2194 360.15 58.0939C358.579 59.9684 357.794 62.6536 357.794 66.1493V83.7801H348.978V46.7707H357.566V52.6983C358.427 50.6717 359.82 49.1012 361.746 47.9866C363.671 46.872 365.849 46.3147 368.281 46.3147C368.838 46.3147 369.32 46.34 369.725 46.3907C370.13 46.4414 370.434 46.492 370.637 46.5427V55.5101Z" fill="#09102F"/>
<path d="M377.996 83.7801V46.7707H386.735V83.7801H377.996ZM376.628 33.7756C376.628 32.1544 377.185 30.7865 378.3 29.6719C379.414 28.5573 380.757 28 382.328 28C383.949 28 385.317 28.5573 386.431 29.6719C387.546 30.7865 388.103 32.1544 388.103 33.7756C388.103 35.3968 387.546 36.7647 386.431 37.8793C385.317 38.9432 383.949 39.4752 382.328 39.4752C380.757 39.4752 379.414 38.9432 378.3 37.8793C377.185 36.7647 376.628 35.3968 376.628 33.7756Z" fill="#09102F"/>
<path d="M414.219 53.7622C412.851 53.7622 411.559 54.0155 410.343 54.5221C409.127 55.0288 408.038 55.7634 407.075 56.726C406.163 57.6886 405.429 58.8792 404.871 60.2977C404.314 61.7163 404.035 63.3628 404.035 65.2374C404.035 67.1119 404.314 68.7838 404.871 70.253C405.429 71.6716 406.163 72.8875 407.075 73.9008C408.038 74.8634 409.152 75.598 410.419 76.1046C411.685 76.6112 413.003 76.8646 414.371 76.8646C415.789 76.8646 417.03 76.6366 418.094 76.1806C419.209 75.7246 420.121 75.1674 420.83 74.5087C421.59 73.7994 422.198 73.0648 422.654 72.3049C423.11 71.4943 423.439 70.7343 423.642 70.025L431.393 72.8368C430.937 74.3061 430.254 75.75 429.342 77.1685C428.43 78.5871 427.264 79.879 425.846 81.0443C424.478 82.2095 422.831 83.1468 420.906 83.8561C418.981 84.5654 416.802 84.92 414.371 84.92C411.635 84.92 409.102 84.4387 406.771 83.4761C404.441 82.4628 402.414 81.0696 400.692 79.2964C399.02 77.5232 397.677 75.446 396.664 73.0648C395.701 70.6837 395.22 68.0745 395.22 65.2374C395.22 62.4003 395.701 59.7911 396.664 57.4099C397.627 54.9781 398.969 52.9009 400.692 51.1784C402.414 49.4052 404.415 48.0373 406.695 47.0747C408.975 46.1121 411.458 45.6308 414.143 45.6308C416.625 45.6308 418.829 45.9854 420.754 46.6947C422.679 47.404 424.351 48.3412 425.77 49.5065C427.188 50.6211 428.328 51.913 429.19 53.3822C430.051 54.8514 430.684 56.3207 431.089 57.7899L423.186 60.6777C422.983 59.8671 422.654 59.0565 422.198 58.2459C421.793 57.3846 421.21 56.6247 420.45 55.966C419.741 55.3074 418.88 54.7755 417.866 54.3701C416.853 53.9648 415.637 53.7622 414.219 53.7622Z" fill="#09102F"/>
<defs>
<filter id="filter0_ii_47_87953" x="-16" y="0" width="124" height="56" filterUnits="userSpaceOnUse" color-interpolation-filters="sRGB">
<feFlood flood-opacity="0" result="BackgroundImageFix"/>
<feBlend mode="normal" in="SourceGraphic" in2="BackgroundImageFix" result="shape"/>
<feColorMatrix in="SourceAlpha" type="matrix" values="0 0 0 0 0 0 0 0 0 0 0 0 0 0 0 0 0 0 127 0" result="hardAlpha"/>
<feOffset dx="10"/>
<feGaussianBlur stdDeviation="12"/>
<feComposite in2="hardAlpha" operator="arithmetic" k2="-1" k3="1"/>
<feColorMatrix type="matrix" values="0 0 0 0 0.0541667 0 0 0 0 0.0541667 0 0 0 0 0.0541667 0 0 0 0.16 0"/>
<feBlend mode="color-burn" in2="shape" result="effect1_innerShadow_47_87953"/>
<feColorMatrix in="SourceAlpha" type="matrix" values="0 0 0 0 0 0 0 0 0 0 0 0 0 0 0 0 0 0 127 0" result="hardAlpha"/>
<feOffset dx="-16"/>
<feGaussianBlur stdDeviation="20"/>
<feComposite in2="hardAlpha" operator="arithmetic" k2="-1" k3="1"/>
<feColorMatrix type="matrix" values="0 0 0 0 0.645833 0 0 0 0 0.645833 0 0 0 0 0.645833 0 0 0 0.32 0"/>
<feBlend mode="color-dodge" in2="effect1_innerShadow_47_87953" result="effect2_innerShadow_47_87953"/>
</filter>
<filter id="filter1_ii_47_87953" x="-24" y="42" width="73" height="28" filterUnits="userSpaceOnUse" color-interpolation-filters="sRGB">
<feFlood flood-opacity="0" result="BackgroundImageFix"/>
<feBlend mode="normal" in="SourceGraphic" in2="BackgroundImageFix" result="shape"/>
<feColorMatrix in="SourceAlpha" type="matrix" values="0 0 0 0 0 0 0 0 0 0 0 0 0 0 0 0 0 0 127 0" result="hardAlpha"/>
<feOffset dx="-24"/>
<feGaussianBlur stdDeviation="15"/>
<feComposite in2="hardAlpha" operator="arithmetic" k2="-1" k3="1"/>
<feColorMatrix type="matrix" values="0 0 0 0 0.0541667 0 0 0 0 0.0541667 0 0 0 0 0.0541667 0 0 0 0.56 0"/>
<feBlend mode="color-burn" in2="shape" result="effect1_innerShadow_47_87953"/>
<feColorMatrix in="SourceAlpha" type="matrix" values="0 0 0 0 0 0 0 0 0 0 0 0 0 0 0 0 0 0 127 0" result="hardAlpha"/>
<feOffset/>
<feGaussianBlur stdDeviation="12"/>
<feComposite in2="hardAlpha" operator="arithmetic" k2="-1" k3="1"/>
<feColorMatrix type="matrix" values="0 0 0 0 0.6125 0 0 0 0 0.6125 0 0 0 0 0.6125 0 0 0 0.3 0"/>
<feBlend mode="color-dodge" in2="effect1_innerShadow_47_87953" result="effect2_innerShadow_47_87953"/>
</filter>
<filter id="filter2_ii_47_87953" x="25" y="42" width="73" height="28" filterUnits="userSpaceOnUse" color-interpolation-filters="sRGB">
<feFlood flood-opacity="0" result="BackgroundImageFix"/>
<feBlend mode="normal" in="SourceGraphic" in2="BackgroundImageFix" result="shape"/>
<feColorMatrix in="SourceAlpha" type="matrix" values="0 0 0 0 0 0 0 0 0 0 0 0 0 0 0 0 0 0 127 0" result="hardAlpha"/>
<feOffset dx="-24"/>
<feGaussianBlur stdDeviation="15"/>
<feComposite in2="hardAlpha" operator="arithmetic" k2="-1" k3="1"/>
<feColorMatrix type="matrix" values="0 0 0 0 0.0541667 0 0 0 0 0.0541667 0 0 0 0 0.0541667 0 0 0 0.56 0"/>
<feBlend mode="color-burn" in2="shape" result="effect1_innerShadow_47_87953"/>
<feColorMatrix in="SourceAlpha" type="matrix" values="0 0 0 0 0 0 0 0 0 0 0 0 0 0 0 0 0 0 127 0" result="hardAlpha"/>
<feOffset/>
<feGaussianBlur stdDeviation="12"/>
<feComposite in2="hardAlpha" operator="arithmetic" k2="-1" k3="1"/>
<feColorMatrix type="matrix" values="0 0 0 0 0.6125 0 0 0 0 0.6125 0 0 0 0 0.6125 0 0 0 0.3 0"/>
<feBlend mode="color-dodge" in2="effect1_innerShadow_47_87953" result="effect2_innerShadow_47_87953"/>
</filter>
<filter id="filter3_i_47_87953" x="37" y="42" width="61" height="70" filterUnits="userSpaceOnUse" color-interpolation-filters="sRGB">
<feFlood flood-opacity="0" result="BackgroundImageFix"/>
<feBlend mode="normal" in="SourceGraphic" in2="BackgroundImageFix" result="shape"/>
<feColorMatrix in="SourceAlpha" type="matrix" values="0 0 0 0 0 0 0 0 0 0 0 0 0 0 0 0 0 0 127 0" result="hardAlpha"/>
<feOffset dx="-16"/>
<feGaussianBlur stdDeviation="6"/>
<feComposite in2="hardAlpha" operator="arithmetic" k2="-1" k3="1"/>
<feColorMatrix type="matrix" values="0 0 0 0 0.645833 0 0 0 0 0.645833 0 0 0 0 0.645833 0 0 0 0.3 0"/>
<feBlend mode="color-dodge" in2="shape" result="effect1_innerShadow_47_87953"/>
</filter>
<filter id="filter4_ii_47_87953" x="-16" y="42" width="75" height="70" filterUnits="userSpaceOnUse" color-interpolation-filters="sRGB">
<feFlood flood-opacity="0" result="BackgroundImageFix"/>
<feBlend mode="normal" in="SourceGraphic" in2="BackgroundImageFix" result="shape"/>
<feColorMatrix in="SourceAlpha" type="matrix" values="0 0 0 0 0 0 0 0 0 0 0 0 0 0 0 0 0 0 127 0" result="hardAlpha"/>
<feOffset dx="10"/>
<feGaussianBlur stdDeviation="12"/>
<feComposite in2="hardAlpha" operator="arithmetic" k2="-1" k3="1"/>
<feColorMatrix type="matrix" values="0 0 0 0 0.0541667 0 0 0 0 0.0541667 0 0 0 0 0.0541667 0 0 0 0.16 0"/>
<feBlend mode="color-burn" in2="shape" result="effect1_innerShadow_47_87953"/>
<feColorMatrix in="SourceAlpha" type="matrix" values="0 0 0 0 0 0 0 0 0 0 0 0 0 0 0 0 0 0 127 0" result="hardAlpha"/>
<feOffset dx="-16"/>
<feGaussianBlur stdDeviation="20"/>
<feComposite in2="hardAlpha" operator="arithmetic" k2="-1" k3="1"/>
<feColorMatrix type="matrix" values="0 0 0 0 0.645833 0 0 0 0 0.645833 0 0 0 0 0.645833 0 0 0 0.32 0"/>
<feBlend mode="color-dodge" in2="effect1_innerShadow_47_87953" result="effect2_innerShadow_47_87953"/>
</filter>
<filter id="filter5_ii_47_87953" x="-16" y="0" width="124" height="56" filterUnits="userSpaceOnUse" color-interpolation-filters="sRGB">
<feFlood flood-opacity="0" result="BackgroundImageFix"/>
<feBlend mode="normal" in="SourceGraphic" in2="BackgroundImageFix" result="shape"/>
<feColorMatrix in="SourceAlpha" type="matrix" values="0 0 0 0 0 0 0 0 0 0 0 0 0 0 0 0 0 0 127 0" result="hardAlpha"/>
<feOffset dx="10"/>
<feGaussianBlur stdDeviation="12"/>
<feComposite in2="hardAlpha" operator="arithmetic" k2="-1" k3="1"/>
<feColorMatrix type="matrix" values="0 0 0 0 0.0541667 0 0 0 0 0.0541667 0 0 0 0 0.0541667 0 0 0 0.16 0"/>
<feBlend mode="color-burn" in2="shape" result="effect1_innerShadow_47_87953"/>
<feColorMatrix in="SourceAlpha" type="matrix" values="0 0 0 0 0 0 0 0 0 0 0 0 0 0 0 0 0 0 127 0" result="hardAlpha"/>
<feOffset dx="-16"/>
<feGaussianBlur stdDeviation="20"/>
<feComposite in2="hardAlpha" operator="arithmetic" k2="-1" k3="1"/>
<feColorMatrix type="matrix" values="0 0 0 0 0.645833 0 0 0 0 0.645833 0 0 0 0 0.645833 0 0 0 0.32 0"/>
<feBlend mode="color-dodge" in2="effect1_innerShadow_47_87953" result="effect2_innerShadow_47_87953"/>
</filter>
<filter id="filter6_i_47_87953" x="-24" y="42" width="73" height="28" filterUnits="userSpaceOnUse" color-interpolation-filters="sRGB">
<feFlood flood-opacity="0" result="BackgroundImageFix"/>
<feBlend mode="normal" in="SourceGraphic" in2="BackgroundImageFix" result="shape"/>
<feColorMatrix in="SourceAlpha" type="matrix" values="0 0 0 0 0 0 0 0 0 0 0 0 0 0 0 0 0 0 127 0" result="hardAlpha"/>
<feOffset dx="-24"/>
<feGaussianBlur stdDeviation="15"/>
<feComposite in2="hardAlpha" operator="arithmetic" k2="-1" k3="1"/>
<feColorMatrix type="matrix" values="0 0 0 0 0.0541667 0 0 0 0 0.0541667 0 0 0 0 0.0541667 0 0 0 0.56 0"/>
<feBlend mode="color-burn" in2="shape" result="effect1_innerShadow_47_87953"/>
</filter>
<filter id="filter7_i_47_87953" x="25" y="42" width="73" height="28" filterUnits="userSpaceOnUse" color-interpolation-filters="sRGB">
<feFlood flood-opacity="0" result="BackgroundImageFix"/>
<feBlend mode="normal" in="SourceGraphic" in2="BackgroundImageFix" result="shape"/>
<feColorMatrix in="SourceAlpha" type="matrix" values="0 0 0 0 0 0 0 0 0 0 0 0 0 0 0 0 0 0 127 0" result="hardAlpha"/>
<feOffset dx="-24"/>
<feGaussianBlur stdDeviation="15"/>
<feComposite in2="hardAlpha" operator="arithmetic" k2="-1" k3="1"/>
<feColorMatrix type="matrix" values="0 0 0 0 0.0541667 0 0 0 0 0.0541667 0 0 0 0 0.0541667 0 0 0 0.56 0"/>
<feBlend mode="color-burn" in2="shape" result="effect1_innerShadow_47_87953"/>
</filter>
<filter id="filter8_i_47_87953" x="24.5" y="56" width="24.5" height="42" filterUnits="userSpaceOnUse" color-interpolation-filters="sRGB">
<feFlood flood-opacity="0" result="BackgroundImageFix"/>
<feBlend mode="normal" in="SourceGraphic" in2="BackgroundImageFix" result="shape"/>
<feColorMatrix in="SourceAlpha" type="matrix" values="0 0 0 0 0 0 0 0 0 0 0 0 0 0 0 0 0 0 127 0" result="hardAlpha"/>
<feOffset/>
<feGaussianBlur stdDeviation="1.3125"/>
<feComposite in2="hardAlpha" operator="arithmetic" k2="-1" k3="1"/>
<feColorMatrix type="matrix" values="0 0 0 0 0 0 0 0 0 0 0 0 0 0 0 0 0 0 0.32 0"/>
<feBlend mode="color-burn" in2="shape" result="effect1_innerShadow_47_87953"/>
</filter>
<filter id="filter9_ii_47_87953" x="-16" y="42" width="75" height="70" filterUnits="userSpaceOnUse" color-interpolation-filters="sRGB">
<feFlood flood-opacity="0" result="BackgroundImageFix"/>
<feBlend mode="normal" in="SourceGraphic" in2="BackgroundImageFix" result="shape"/>
<feColorMatrix in="SourceAlpha" type="matrix" values="0 0 0 0 0 0 0 0 0 0 0 0 0 0 0 0 0 0 127 0" result="hardAlpha"/>
<feOffset dx="10"/>
<feGaussianBlur stdDeviation="12"/>
<feComposite in2="hardAlpha" operator="arithmetic" k2="-1" k3="1"/>
<feColorMatrix type="matrix" values="0 0 0 0 0.0541667 0 0 0 0 0.0541667 0 0 0 0 0.0541667 0 0 0 0.16 0"/>
<feBlend mode="color-burn" in2="shape" result="effect1_innerShadow_47_87953"/>
<feColorMatrix in="SourceAlpha" type="matrix" values="0 0 0 0 0 0 0 0 0 0 0 0 0 0 0 0 0 0 127 0" result="hardAlpha"/>
<feOffset dx="-16"/>
<feGaussianBlur stdDeviation="20"/>
<feComposite in2="hardAlpha" operator="arithmetic" k2="-1" k3="1"/>
<feColorMatrix type="matrix" values="0 0 0 0 0.645833 0 0 0 0 0.645833 0 0 0 0 0.645833 0 0 0 0.32 0"/>
<feBlend mode="color-dodge" in2="effect1_innerShadow_47_87953" result="effect2_innerShadow_47_87953"/>
</filter>
<linearGradient id="paint0_linear_47_87953" x1="98" y1="57.5" x2="48" y2="111" gradientUnits="userSpaceOnUse">
<stop stop-color="#4CC8FD"/>
<stop offset="0.442708" stop-color="#2B80FF"/>
<stop offset="1" stop-color="#3D0CC6"/>
</linearGradient>
<linearGradient id="paint1_linear_47_87953" x1="36.75" y1="56" x2="36.75" y2="98" gradientUnits="userSpaceOnUse">
<stop stop-color="#BDFE6B"/>
<stop offset="1" stop-color="#92FD06"/>
</linearGradient>
<linearGradient id="paint2_linear_47_87953" x1="98" y1="57.5" x2="48" y2="111" gradientUnits="userSpaceOnUse">
<stop stop-color="#4CC8FD"/>
<stop offset="0.442708" stop-color="#2B80FF"/>
<stop offset="1" stop-color="#3D0CC6"/>
</linearGradient>
</defs>
</svg>
